<svg baseProfile="tiny" xmlns="http://www.w3.org/2000/svg" viewBox="0 0 351.161 39.186"><path fill="#81B441" d="M20.471 6.237c-.803-.446-3.106-.17-5.872.686-4.841 3.309-8.927 8.184-9.212 16.012-.052.187-.529-.026-.624-.083-1.307-2.506-1.825-5.144-.734-8.95.203-.339-.462-.756-.581-.637-.24.24-1.238 1.304-1.902 2.454-3.288 5.704-1.138 13.013 4.615 16.211 5.752 3.203 13.014 1.137 16.217-4.616 3.705-6.639.265-19.863-1.907-21.077z"/><g fill="#121112"><path d="M41.058 9.424c-6.82 0-11.769 5.07-11.769 12.055 0 7.043 4.937 11.961 12.007 11.961 3.571 0 6.398-1.117 8.647-3.415.671-.725.744-1.424.744-1.691 0-1.139-.847-1.966-2.014-1.966-.588 0-1.08.222-1.644.744-1.273 1.186-2.95 2.398-5.733 2.398-3.87 0-7.017-2.906-7.215-6.637h15.402c1.675 0 2.488-.783 2.488-2.393 0-.474 0-.816-.095-1.491-.831-5.99-4.874-9.565-10.818-9.565zm0 3.739c3.698 0 6.071 2.357 6.217 6.16h-13.19c.347-3.519 3.323-6.16 6.973-6.16zM66.679 9.424c-3.098 0-6.165 1.781-7.363 4.255v-1.529c0-2.369-1.836-2.489-2.204-2.489-1.088 0-2.25.654-2.25 2.489v18.467c0 2.46 1.954 2.584 2.346 2.584.391 0 2.346-.124 2.346-2.584v-9.9c0-4.307 2.441-7.316 5.935-7.316 3.385 0 5.031 2.221 5.031 6.792v10.424c0 2.46 1.955 2.584 2.346 2.584s2.346-.124 2.346-2.584v-11.899c0-4.493-2.242-9.294-8.533-9.294zM96.44 9.662c-1.084 0-1.871.632-2.339 1.877l-6.419 16.142-6.37-16.142c-.499-1.263-1.279-1.877-2.386-1.877-1.294 0-2.346 1.009-2.346 2.25 0 .307.035.705.294 1.328l7.377 17.419c.879 2.101 2.325 2.542 3.384 2.542 1.058 0 2.505-.441 3.386-2.541l7.425-17.516c.254-.614.293-1.066.293-1.279-.001-1.256-.99-2.203-2.299-2.203zM110.083 9.424c-3.001 0-5.796.836-7.869 2.352-.703.485-1.045 1.09-1.045 1.851 0 1.048.8 1.869 1.823 1.869.443 0 .938-.176 1.392-.494 1.782-1.188 3.457-1.742 5.27-1.742 3.469 0 5.46 1.764 5.46 4.841v.51c-7.787.009-15.707.949-15.707 7.724 0 4.876 4.167 7.059 8.296 7.059 3.289 0 5.915-1.303 7.6-3.77v1.186c0 1.767 1.186 2.393 2.204 2.393.214 0 2.107-.067 2.107-2.393v-12.424c.001-5.612-3.563-8.962-9.531-8.962zm4.044 12.64h.987v1.081c0 3.953-2.518 6.507-6.412 6.507-1.057 0-4.507-.246-4.507-3.414 0-3.742 5.669-4.174 9.932-4.174zM131.833 13.925c2.053 0 2.157-1.597 2.157-1.917 0-.95-.567-1.965-2.157-1.965h-4.221v-4.27c0-1.907-1.238-2.584-2.298-2.584-.391 0-2.346.124-2.346 2.584v20.276c0 4.679 2.308 7.152 6.676 7.152 1.13 0 2.231-.2 2.952-.535.826-.412 1.299-1.089 1.299-1.858 0-1.084-.786-1.871-1.871-1.871-.209 0-.507.052-.836.146-.402.1-.674.14-.972.14-1.777 0-2.604-1.16-2.604-3.651v-11.647h4.221zM147.348 9.424c-7.096 0-12.245 5.03-12.245 11.959 0 3.374 1.248 6.449 3.512 8.658 2.247 2.192 5.348 3.398 8.734 3.398 7.008 0 12.293-5.183 12.293-12.056-.001-6.929-5.172-11.959-12.294-11.959zm0 20.038c-4.866 0-7.411-4.064-7.411-8.078 0-5.517 3.842-8.029 7.411-8.029s7.411 2.512 7.411 8.029c0 5.55-3.841 8.078-7.411 8.078z"/></g><g fill="#81B441"><path d="M196.507 11.088c-.686-.748-1.538-1.303-2.531-1.651-1.813-.631-4.29-.682-6.259-.057-.923.293-1.773.7-2.528 1.21-.757.513-1.421 1.122-1.974 1.809-.174.215-.337.436-.489.664-.483-1.193-1.194-2.12-2.125-2.767-1.301-.903-2.977-1.361-4.981-1.361-1.023 0-1.994.164-2.884.485-.88.318-1.694.757-2.419 1.304-.713.538-1.345 1.182-1.879 1.915v-2.589c0-.388-.315-.703-.703-.703h-1.132c-.388 0-.703.315-.703.703v22.275c0 .388.315.703.703.703h1.132c.388 0 .703-.315.703-.703v-14.014c.13-.659.367-1.395.705-2.191.342-.804.812-1.571 1.397-2.276.573-.691 1.288-1.275 2.125-1.738.81-.447 1.783-.673 2.893-.673.811 0 1.57.095 2.253.283.64.176 1.176.474 1.637.912.458.435.823 1.042 1.086 1.802.275.793.414 1.827.414 3.073v14.823c0 .388.315.703.703.703h1.112c.388 0 .703-.315.703-.703l-.002-14.775c.023-.335.108-.723.253-1.15.149-.439.359-.889.627-1.337.272-.455.608-.906 1-1.342.38-.424.838-.81 1.36-1.145.52-.334 1.118-.609 1.775-.817.655-.205 1.395-.315 2.199-.327l.144-.001c.748 0 1.451.094 2.087.281.639.187 1.174.503 1.636.966.461.46.829 1.111 1.095 1.932.278.859.419 1.97.419 3.304v14.411c0 .388.315.703.703.703h1.112c.388 0 .703-.315.703-.703v-14.412c0-1.546-.174-2.89-.515-3.996-.353-1.137-.876-2.09-1.555-2.83zM219.047 31.173c-.065-.313-.12-.647-.166-1.006-.046-.364-.082-.747-.109-1.151-.026-.403-.04-.796-.04-1.179v-11.158c0-1.259-.218-2.39-.647-3.363-.434-.98-1.049-1.807-1.829-2.458-.769-.64-1.693-1.128-2.746-1.45-2.105-.64-4.812-.641-6.92.091-1.079.373-2.03.89-2.828 1.538-.807.658-1.443 1.432-1.891 2.305-.454.885-.685 1.828-.685 2.801 0 .378.299.688.677.702l1.112.041c.188.015.375-.064.514-.196.137-.132.215-.315.215-.506 0-.655.15-1.248.459-1.814.315-.575.756-1.083 1.313-1.508.572-.436 1.258-.783 2.041-1.032.792-.251 1.669-.378 2.608-.378 1.996 0 3.534.461 4.57 1.37 1.023.898 1.521 2.146 1.521 3.815v2.55h-4.629c-1.656 0-3.17.177-4.503.527-1.347.356-2.509.859-3.456 1.497-.974.658-1.73 1.463-2.248 2.392-.524.939-.789 1.975-.789 3.08 0 .985.183 1.904.542 2.73.362.831.885 1.557 1.555 2.158.665.596 1.472 1.062 2.399 1.385.916.32 1.946.482 3.063.482 1.166 0 2.245-.129 3.206-.384.958-.253 1.838-.605 2.617-1.045.779-.441 1.472-.96 2.062-1.542l.255-.261.023.292c.066.777.181 1.457.345 2.02.087.301.362.508.675.508h1.276c.388 0 .703-.315.703-.703v-.183c0-.097-.02-.193-.059-.281-.079-.175-.147-.406-.206-.686zm-10.899-.23c-.767 0-1.468-.114-2.088-.339-.613-.222-1.147-.53-1.587-.917-.433-.38-.774-.827-1.013-1.328-.235-.493-.353-1.028-.353-1.592 0-.714.175-1.352.537-1.953.368-.611.909-1.146 1.608-1.593.727-.464 1.633-.831 2.693-1.093 1.08-.267 2.325-.402 3.702-.402h4.567v4.434c-.331.707-.742 1.349-1.221 1.912-.507.595-1.105 1.113-1.777 1.54-.671.426-1.437.758-2.277.985-.849.229-1.788.346-2.791.346zM232.775 9.208c-.227-.087-.489-.154-.801-.203-.296-.047-.638-.071-1.016-.071-1.972 0-3.645.505-4.971 1.5-.598.448-1.13.972-1.593 1.568v-1.953c0-.388-.315-.703-.703-.703h-1.112c-.388 0-.703.315-.703.703v22.275c0 .388.315.703.703.703h1.112c.388 0 .703-.315.703-.703v-14.533c.168-.916.433-1.772.79-2.549.355-.773.813-1.453 1.359-2.018.538-.556 1.182-.998 1.916-1.316.731-.317 1.572-.477 2.5-.477.233 0 .457.012.672.036l.682.081c.184.023.372-.028.519-.142.147-.115.243-.282.266-.468l.124-.988c.038-.319-.146-.626-.447-.742zM242.103 19.598l9.738-9.033c.212-.197.282-.503.176-.773-.106-.269-.365-.446-.654-.446h-1.585c-.177 0-.347.067-.477.187l-10.135 9.372-1.429 1.351v-19.553c0-.388-.315-.703-.703-.703h-1.112c-.388 0-.703.315-.703.703v31.622c0 .388.315.703.703.703h1.112c.388 0 .703-.315.703-.703v-8.901l2.496-2.146 9.792 11.502c.134.157.329.247.535.247h1.461c.388 0 .703-.315.703-.703 0-.226-.107-.428-.274-.557l-10.347-12.169zM267.978 11.804c-.811-.907-1.792-1.621-2.916-2.119-2.298-1.02-5.242-1.016-7.632.143-1.214.588-2.287 1.42-3.191 2.47-.896 1.041-1.614 2.299-2.135 3.738-.52 1.437-.783 3.024-.783 4.717v.906c0 1.697.272 3.28.807 4.704.536 1.429 1.285 2.682 2.225 3.723.944 1.047 2.062 1.875 3.324 2.463 1.269.59 2.65.889 4.105.889.943 0 1.823-.097 2.615-.287.792-.191 1.528-.46 2.186-.8.663-.343 1.265-.76 1.788-1.238.517-.473.981-1.004 1.38-1.58.219-.317.143-.75-.171-.972l-.782-.556c-.307-.22-.732-.157-.963.143-.429.555-.878 1.014-1.335 1.366-.456.352-.938.637-1.431.846-.494.211-1.018.361-1.556.447-1.602.258-3.373.149-4.837-.574-.967-.477-1.818-1.136-2.527-1.959-.715-.829-1.285-1.821-1.694-2.951-.409-1.132-.617-2.366-.617-3.663v-.512h15.993c.388 0 .703-.315.703-.703v-1.297c0-1.488-.225-2.87-.67-4.108-.446-1.246-1.081-2.334-1.886-3.236zm-3.892.244c.814.401 1.516.951 2.088 1.632.581.694 1.038 1.514 1.357 2.436.277.797.436 1.641.476 2.515h-14.006c.144-.846.377-1.649.697-2.397.412-.964.954-1.815 1.61-2.528.649-.705 1.41-1.264 2.262-1.662 1.667-.778 3.89-.794 5.516.004zM282.075 31.317c-.066-.373-.414-.614-.792-.573-.374.054-.723.098-1.044.131-.607.064-1.463.099-2.151-.1-.281-.08-.525-.237-.748-.481-.233-.253-.426-.634-.574-1.132-.158-.536-.239-1.266-.239-2.169v-15.108h4.362c.388 0 .703-.315.703-.703v-1.132c0-.388-.315-.703-.703-.703h-4.362v-5.309c0-.388-.315-.703-.703-.703h-1.132c-.388 0-.703.315-.703.703v5.309h-3.415c-.388 0-.703.315-.703.703v1.132c0 .388.315.703.703.703h3.415v15.108c0 1.171.113 2.169.335 2.967.234.842.586 1.531 1.047 2.05.475.532 1.061.913 1.744 1.128.629.2 1.345.301 2.127.301l.542-.011c.217-.008.442-.023.68-.044l.662-.075c.255-.034.485-.088.683-.16.321-.117.511-.447.452-.783l-.186-1.049z"/></g><rect x="293.494" fill="#81B441" width="57.667" height="39.186"/><g fill="#fff"><path d="M311.766 10.976c-.102-.273-.363-.455-.655-.455h-.773c-.292 0-.554.182-.655.455l-6.387 17.062c-.081.215-.051.455.08.644s.346.302.575.302h.691c.292 0 .554-.182.656-.456l1.729-4.642h7.384l1.74 4.644c.103.272.363.454.655.454h.711c.387 0 .7-.313.7-.7 0-.145-.043-.278-.118-.39l-6.333-16.918zm-3.982 10.877l2.939-7.867 2.931 7.867h-5.87zM331.125 12.076c-.531-.5-1.194-.89-1.973-1.159-.759-.263-1.64-.396-2.62-.396h-5.332c-.387 0-.7.313-.7.7v17.062c0 .387.313.7.7.7h.633c.387 0 .7-.313.7-.7v-6.507h3.999c.984 0 1.866-.126 2.621-.375.779-.257 1.444-.634 1.977-1.121.54-.494.949-1.101 1.218-1.802.261-.679.393-1.445.393-2.277 0-.832-.134-1.604-.397-2.295-.273-.71-.683-1.325-1.219-1.83zm-4.593 7.667h-3.999v-7.189h3.999c.771 0 1.435.102 1.97.302.52.193.946.455 1.268.776s.551.688.701 1.122c.157.455.236.95.236 1.471 0 .494-.079.965-.234 1.398-.148.413-.376.766-.695 1.076-.321.311-.748.564-1.268.752-.539.194-1.204.292-1.978.292zM337.676 10.521h-.633c-.387 0-.7.313-.7.7v17.062c0 .387.313.7.7.7h.633c.387 0 .7-.313.7-.7v-17.062c0-.387-.314-.7-.7-.7z"/></g></svg>